<svg xmlns="http://www.w3.org/2000/svg" viewBox="0 0 1500 1500" preserveAspectRatio="xMidYMid meet"><g transform="matrix(1,0,0,1,216,414)" fill="#ffffff"><g transform="translate(18.355151,425.529512)"><path d="M 102.3125 -2.53125 L 25.671875 -0.640625 L 17.59375 -327.28125 L 171.71875 -331.09375 C 191.695312 -331.582031 209.546875 -328.738281 225.265625 -322.5625 C 240.984375 -316.382812 253.441406 -306.195312 262.640625 -292 C 271.835938 -277.8125 276.734375 -258.867188 277.328125 -235.171875 C 277.859375 -213.765625 273.890625 -195.316406 265.421875 -179.828125 C 256.953125 -164.347656 245.039062 -152.347656 229.6875 -143.828125 C 214.332031 -135.304688 196.664062 -130.800781 176.6875 -130.3125 L 99.203125 -128.390625 Z M 95.921875 -260.671875 L 97.5625 -194.75 L 164.359375 -196.40625 C 189.753906 -197.03125 202.175781 -208.46875 201.625 -230.71875 C 201.082031 -252.414062 188.113281 -262.953125 162.71875 -262.328125 Z M 95.921875 -260.671875 "/></g><g transform="translate(289.644699,418.816252)"><path d="M 195.703125 -331.6875 L 53.40625 46.21875 L -10.390625 47.796875 L 132.328125 -330.109375 Z M 195.703125 -331.6875 "/></g></g><g transform="matrix(1,0,0,1,531,95)" fill="#38b6ff"><g transform="translate(6.158934,1047.398534)"><path d="M 201.03125 3.625 L 2.09375 0.03125 L 289.765625 -793.921875 L 492.890625 -790.265625 L 751.765625 13.53125 L 552.828125 9.953125 L 512.484375 -134.25 L 246.53125 -139.046875 Z M 387.578125 -583.75 L 298.671875 -300.453125 L 466.1875 -297.4375 Z M 387.578125 -583.75 "/></g></g></svg>
