<svg xmlns="http://www.w3.org/2000/svg" viewBox="110 555 1278 378" preserveAspectRatio="xMidYMid meet"><g transform="matrix(1,0,0,1,102,492)" fill="#ffffff"><g transform="translate(7.276157,377.293399)"><path d="M 93.40625 0 L 23.453125 0 L 23.453125 -298.203125 L 164.140625 -298.203125 C 182.378906 -298.203125 198.597656 -295.203125 212.796875 -289.203125 C 227.003906 -283.210938 238.144531 -273.640625 246.21875 -260.484375 C 254.300781 -247.328125 258.34375 -229.9375 258.34375 -208.3125 C 258.34375 -188.769531 254.300781 -172.03125 246.21875 -158.09375 C 238.144531 -144.15625 227.003906 -133.472656 212.796875 -126.046875 C 198.597656 -118.617188 182.378906 -114.90625 164.140625 -114.90625 L 93.40625 -114.90625 Z M 93.40625 -235.671875 L 93.40625 -175.484375 L 154.375 -175.484375 C 177.5625 -175.484375 189.15625 -185.644531 189.15625 -205.96875 C 189.15625 -225.769531 177.5625 -235.671875 154.375 -235.671875 Z M 93.40625 -235.671875 "/></g><g transform="translate(254.948141,377.293399)"><path d="M 186.03125 -298.203125 L 47.6875 43.375 L -10.546875 43.375 L 128.1875 -298.203125 Z M 186.03125 -298.203125 "/></g></g><g transform="matrix(1,0,0,1,475,529)" fill="#38b6ff"><g transform="translate(3.321733,364.267418)"><path d="M 73.453125 0 L 0.765625 0 L 100.609375 -291.890625 L 174.828125 -291.890625 L 274.6875 0 L 202 0 L 186.3125 -52.40625 L 89.140625 -52.40625 Z M 137.71875 -215.765625 L 107.125 -111.703125 L 168.328125 -111.703125 Z M 137.71875 -215.765625 "/></g><g transform="translate(278.61277,364.267418)"><path d="M 111.328125 0 L 22.953125 0 L 22.953125 -291.890625 L 111.328125 -291.890625 C 161.054688 -291.890625 199.179688 -279.390625 225.703125 -254.390625 C 252.234375 -229.398438 265.5 -193.441406 265.5 -146.515625 C 265.5 -99.335938 252.234375 -63.125 225.703125 -37.875 C 199.179688 -12.625 161.054688 0 111.328125 0 Z M 91.4375 -230.6875 L 91.4375 -61.203125 L 110.5625 -61.203125 C 138.613281 -61.203125 160.035156 -68.023438 174.828125 -81.671875 C 189.617188 -95.316406 197.015625 -116.929688 197.015625 -146.515625 C 197.015625 -174.316406 189.234375 -195.296875 173.671875 -209.453125 C 158.117188 -223.609375 137.082031 -230.6875 110.5625 -230.6875 Z M 91.4375 -230.6875 "/></g><g transform="translate(556.197844,364.267418)"><path d="M 91.4375 0 L 22.953125 0 L 22.953125 -291.890625 L 133.125 -291.890625 L 181.328125 -81.875 L 229.15625 -291.890625 L 339.71875 -291.890625 L 339.71875 0 L 271.234375 0 L 271.234375 -237.1875 L 214.625 0 L 148.046875 0 L 91.4375 -235.65625 Z M 91.4375 0 "/></g></g></svg>
